<svg width="265" height="414" viewBox="0 0 265 414" fill="none" xmlns="http://www.w3.org/2000/svg">
<path fill-rule="evenodd" clip-rule="evenodd" d="M132.417 38.0346C127.612 32.3939 124.359 25.481 124.903 17.735C126.469 -4.58345 157.537 0.326329 163.58 11.5908C169.623 22.8552 168.905 51.4284 161.095 53.4417C157.98 54.2446 151.344 52.2778 144.591 48.2072L148.83 78.1964H123.8L132.417 38.0346Z" fill="#FFCFB4"/>
<path fill-rule="evenodd" clip-rule="evenodd" d="M145.842 20.1999C146.8 33.546 149.335 40.2191 153.446 40.2191C159.612 40.2191 164.844 36.3044 167.549 36.3044C169.522 36.3044 169.081 38.7726 167.774 40.6026C166.695 42.1124 161.443 43.5677 161.443 45.9084C161.443 48.2492 165.593 46.4383 165.593 47.8265C165.593 50.1228 166.322 54.4403 162.337 54.4403C158.303 54.4403 146.739 52.9704 144.757 46.9841C143.478 43.1207 142.651 35.115 142.276 22.967C142.031 22.9379 141.782 22.923 141.53 22.923C138.074 22.923 135.272 25.7245 135.272 29.1803C135.272 30.9347 135.994 32.5205 137.157 33.6567C135.709 35.7003 134.087 37.8352 132.227 40.0381C125.242 35.8472 120.059 23.5789 126.888 11.7935C128.776 6.01996 133.049 2.93612 138.096 1.50419C142.184 -0.205941 146.428 -0.39876 150.011 0.626446C157.033 1.22881 163.304 3.37024 165.082 4.64199C165.082 11.2907 163.793 13.2633 152.79 13.0894C150.086 14.5174 148.007 16.9762 145.842 20.1999Z" fill="#191847"/>
<path fill-rule="evenodd" clip-rule="evenodd" d="M121.793 164.499L172.98 294.055L207.311 403.583H220.868L168.383 164.499L121.793 164.499Z" fill="#FFCFB4"/>
<path fill-rule="evenodd" clip-rule="evenodd" d="M111.485 164.499C110.94 210.026 102.991 271.32 101.721 274.158C100.874 276.05 71.6462 300.109 14.0363 346.336L23.3736 356.328C91.3479 316.694 126.908 294.234 130.053 288.948C134.772 281.019 150.133 208.053 162.466 164.499H111.485Z" fill="#FFCFB4"/>
<path fill-rule="evenodd" clip-rule="evenodd" d="M12.7874 343C9.65155 344.109 7.49134 345.16 6.30683 346.154C4.86617 347.362 2.96529 349.366 0.60417 352.166C2.00652 353.837 14.6097 368.857 38.4137 397.225C43.2673 395.148 44.79 392.718 42.9818 389.937C41.1736 387.155 39.6937 384.825 38.5423 382.948L30.3054 354.17C30.1469 353.616 29.5695 353.296 29.0158 353.455C29.0063 353.457 28.9969 353.46 28.9875 353.463L24.5923 354.857C21.5429 353.436 19.4056 351.995 18.1804 350.535C17.185 349.349 16.2894 347.308 15.4936 344.414L15.4936 344.414C15.1882 343.303 14.0403 342.65 12.9295 342.956C12.8816 342.969 12.8342 342.984 12.7874 343Z" fill="#E4E4E4"/>
<path fill-rule="evenodd" clip-rule="evenodd" d="M201.76 398.527C200.593 401.641 200.01 403.972 200.01 405.518C200.01 407.399 200.323 410.143 200.95 413.751C203.131 413.751 222.738 413.751 259.771 413.751C261.299 408.698 260.417 405.969 257.124 405.566C253.83 405.164 251.095 404.8 248.916 404.475L221.577 392.287C221.051 392.052 220.434 392.289 220.2 392.815C220.196 392.824 220.192 392.833 220.188 392.842L218.431 397.105C215.382 398.527 212.905 399.239 210.998 399.239C209.45 399.239 207.311 398.613 204.582 397.362L204.582 397.362C203.535 396.882 202.297 397.342 201.817 398.389C201.796 398.434 201.777 398.48 201.76 398.527Z" fill="#E4E4E4"/>
<path fill-rule="evenodd" clip-rule="evenodd" d="M156.208 392.302L220.664 385.306L172.894 164.499H115.164L156.208 392.302Z" fill="#293739"/>
<path fill-rule="evenodd" clip-rule="evenodd" d="M27.3688 330.215L69.6478 380.259C114.179 331.623 140.141 299.888 147.534 285.053C154.926 270.219 161.572 230.034 167.47 164.499H102.476C99.2542 222.154 97.0823 252.323 95.9606 255.006C94.8389 257.689 71.9749 282.759 27.3688 330.215Z" fill="#445254"/>
<path fill-rule="evenodd" clip-rule="evenodd" d="M213.018 151.566L242.561 180.387C251.157 184.053 258.2 188.102 263.69 192.533C264.925 194.022 266.269 196.876 260.46 195.599C254.651 194.322 248.483 193.24 247.391 195.129C246.299 197.018 249.516 199.913 247.499 202.386C246.153 204.034 241.629 198.791 233.926 186.657L203.206 168.544L213.018 151.566ZM68.5525 125.483L91.3892 125.568C73.996 181.92 64.7632 211.425 63.6907 214.083C61.2775 220.063 66.3841 229.171 68.5679 234.066C61.4553 237.249 62.2132 225.462 53.2408 229.636C45.0513 233.446 38.8215 240.35 29.3597 234.512C28.1964 233.794 26.9217 231.091 30.0016 228.98C37.675 223.718 48.7328 214.509 50.2269 211.478C52.2643 207.345 58.3729 178.68 68.5525 125.483Z" fill="#FFCFB4"/>
<path fill-rule="evenodd" clip-rule="evenodd" d="M138.14 60.7004L147.158 59.1536C161.364 109.371 234.355 143.601 238.836 162.374C240.479 169.258 235.524 172.738 238.084 174.835L226.362 183.416C224.377 181.1 220.141 185.336 211.295 182.373C202.449 179.41 138.14 120.162 138.14 60.7004Z" fill="#191847"/>
<path fill-rule="evenodd" clip-rule="evenodd" d="M153.31 67.3766C152.27 133.861 190.703 150.82 182.142 177.49C175.073 199.515 107.408 223.19 95.6993 201.602C90.9596 192.863 88.8093 182.293 88.5653 170.803C85.5727 179.631 83.2059 187.231 81.4649 193.602C78.4614 204.594 66.8176 206.342 66.8176 210.576L51.477 206.342C52.5175 200.589 45.2856 197.788 47.2246 184.935C55.9128 127.349 79.2564 85.607 117.255 59.7084L117.648 54.0866C117.809 51.7883 119.803 50.0554 122.101 50.2161L150.19 52.1804C152.489 52.3411 154.222 54.3345 154.061 56.6328L153.31 67.3766Z" fill="#353850"/>
</svg>
